<?xml version="1.0" encoding="utf-8"?>
<!-- Generator: Adobe Illustrator 24.0.1, SVG Export Plug-In . SVG Version: 6.00 Build 0)  -->
<svg version="1.1" id="Camada_1" xmlns="http://www.w3.org/2000/svg" xmlns:xlink="http://www.w3.org/1999/xlink" x="0px" y="0px"
	 viewBox="0 0 300 300" style="enable-background:new 0 0 300 300;" xml:space="preserve">
<style type="text/css">
	.st0{fill:#E51B23;}
	.st1{fill:none;stroke:#E51B23;stroke-width:3;stroke-linecap:round;stroke-miterlimit:10;}
	.st2{fill:#FFFFFF;}
</style>
<g>
	<g>
		<g>
			<path class="st0" d="M48.15,164.17v15.21l-7.61-3.26h-3.26v56.51l3.26,7.61H20.98l3.26-7.61v-56.51h-3.26l-7.61,3.26v-15.21
				H48.15z"/>
			<path class="st0" d="M92.34,186.99v3.26c0,11.59-2.78,18.11-9.66,21.01l7.97,21.61l5.31,7.37H76.65l-0.12-7.49l-7.37-19.68h-0.72
				v19.56l3.26,7.61H52.14l3.26-7.61v-60.86l-3.26-7.61H71.7C86.91,164.17,92.34,170.69,92.34,186.99z M68.44,176.13v24.99h3.26
				c5.43,0,7.61-4.35,7.61-9.78v-5.43c0-5.43-2.17-9.78-7.61-9.78H68.44z"/>
			<path class="st0" d="M101.88,171.78l-3.26-7.61h19.56l-3.26,7.61v60.86l3.26,7.61H98.62l3.26-7.61V171.78z"/>
			<path class="st0" d="M140.4,164.17c15.21,0,20.65,6.52,20.65,22.82v3.26c0,16.3-5.43,22.82-20.65,22.82h-2.17v19.56l3.26,7.61
				h-19.56l3.26-7.61v-60.86l-3.26-7.61h3.26H140.4z M138.23,176.13v24.99h2.17c5.43,0,7.61-4.35,7.61-9.78v-5.43
				c0-5.43-2.17-9.78-7.61-9.78H138.23z"/>
			<path class="st0" d="M168.29,240.24v-68.46l-3.26-7.61h16.3h3.26l-3.26,7.61v56.51h11.95l7.61-3.26v15.21H168.29z"/>
			<path class="st0" d="M205.12,240.24l8.81-68.46l-1.69-7.61h22.22l8.69,68.46l3.62,7.61h-18.35l1.69-7.61l-0.6-4.23h-9.9
				l-0.48,4.23l1.81,7.61h-18.47l3.62-7.61L205.12,240.24z M221.18,216.46h6.88l-3.38-26.81L221.18,216.46z"/>
			<path class="st0" d="M265.98,164.17c15.21,0,20.65,6.52,20.65,22.82v3.26c0,16.3-5.43,22.82-20.65,22.82h-2.17v19.56l3.26,7.61
				H247.5l3.26-7.61v-60.86l-3.26-7.61h3.26H265.98z M263.8,176.13v24.99h2.17c5.43,0,7.61-4.35,7.61-9.78v-5.43
				c0-5.43-2.17-9.78-7.61-9.78H263.8z"/>
		</g>
		<g>
			<g>
				<g>
					<path class="st0" d="M96.2,74.73c-10.55,0-19.11,8.55-19.11,19.11c0,11.28,19.11,33.07,19.11,33.07s19.11-20.95,19.11-33.07
						C115.3,83.28,106.75,74.73,96.2,74.73z M96.2,101.32c-4.57,0-8.27-3.7-8.27-8.27c0-4.57,3.7-8.27,8.27-8.27
						c4.57,0,8.27,3.7,8.27,8.27C104.47,97.62,100.76,101.32,96.2,101.32z"/>
				</g>
			</g>
			<g>
				<g>
					<path class="st0" d="M207.87,59.76c-8.3,0-15.03,6.73-15.03,15.03c0,8.88,15.03,26.02,15.03,26.02s15.03-16.49,15.03-26.02
						C222.91,66.49,216.18,59.76,207.87,59.76z M207.87,80.68c-3.59,0-6.51-2.91-6.51-6.51c0-3.59,2.91-6.51,6.51-6.51
						c3.59,0,6.51,2.91,6.51,6.51C214.38,77.77,211.47,80.68,207.87,80.68z"/>
				</g>
			</g>
			<g>
				<path class="st0" d="M99.73,141.84c-0.31,0-0.63-0.07-0.93-0.21c-1.11-0.51-1.58-1.83-1.07-2.93
					c1.88-4.03,19.49-39.52,58.95-45.08c25.15-3.54,45.04,7.47,52.42,12.36c1.02,0.67,1.29,2.04,0.62,3.06
					c-0.67,1.02-2.05,1.29-3.06,0.62c-6.96-4.62-25.7-15-49.36-11.67c-37.79,5.32-54.85,41.05-55.56,42.57
					C101.36,141.36,100.56,141.84,99.73,141.84z"/>
			</g>
		</g>
	</g>
</g>
</svg>
